HIERARCHY
ROOT root
{
	OFFSET 0.000000 0.000000 0.000000
	CHANNELS 6 Xposition Yposition Zposition Zrotation Yrotation Xrotation
	JOINT lhip
	{
		OFFSET 0.058581 -0.082280 -0.017664
		CHANNELS 3 Zrotation Yrotation Xrotation
		JOINT lknee
		{
			OFFSET 0.043451 -0.386469 0.008037
			CHANNELS 3 Zrotation Yrotation Xrotation
			JOINT lankle
			{
				OFFSET -0.014790 -0.426874 -0.037428
				CHANNELS 3 Zrotation Yrotation Xrotation
				JOINT ltoe
				{
					OFFSET 0.041054 -0.060286 0.122042
					CHANNELS 3 Zrotation Yrotation Xrotation
					End Site
					{
						OFFSET 0.000000 0.000000 0.000000
					}
				}
			}
		}
	}
	JOINT rhip
	{
		OFFSET -0.060310 -0.090513 -0.013543
		CHANNELS 3 Zrotation Yrotation Xrotation
		JOINT rknee
		{
			OFFSET -0.043257 -0.383688 -0.004843
			CHANNELS 3 Zrotation Yrotation Xrotation
			JOINT rankle
			{
				OFFSET 0.019056 -0.420046 -0.034562
				CHANNELS 3 Zrotation Yrotation Xrotation
				JOINT rtoe
				{
					OFFSET -0.034840 -0.062106 0.130323
					CHANNELS 3 Zrotation Yrotation Xrotation
					End Site
					{
						OFFSET 0.000000 0.000000 0.000000
					}
				}
			}
		}
	}
	JOINT lowerback
	{
		OFFSET 0.004439 0.124404 -0.038385
		CHANNELS 3 Zrotation Yrotation Xrotation
		JOINT upperback
		{
			OFFSET 0.004488 0.137956 0.026820
			CHANNELS 3 Zrotation Yrotation Xrotation
			JOINT chest
			{
				OFFSET -0.002265 0.056032 0.002855
				CHANNELS 3 Zrotation Yrotation Xrotation
				JOINT lowerneck
				{
					OFFSET -0.013390 0.211636 -0.033468
					CHANNELS 3 Zrotation Yrotation Xrotation
					JOINT upperneck
					{
						OFFSET 0.010113 0.088937 0.050410
						CHANNELS 3 Zrotation Yrotation Xrotation
						End Site
						{
							OFFSET 0.000000 0.000000 0.000000
						}
					}
				}
				JOINT lclavicle
				{
					OFFSET 0.071702 0.114000 -0.018898
					CHANNELS 3 Zrotation Yrotation Xrotation
					JOINT lshoulder
					{
						OFFSET 0.122921 0.045205 -0.019046
						CHANNELS 3 Zrotation Yrotation Xrotation
						JOINT lelbow
						{
							OFFSET 0.255332 -0.015649 -0.022946
							CHANNELS 3 Zrotation Yrotation Xrotation
							JOINT lwrist
							{
								OFFSET 0.265709 0.012698 -0.007375
								CHANNELS 3 Zrotation Yrotation Xrotation
								End Site
								{
									OFFSET 0.000000 0.000000 0.000000
								}
							}
						}
					}
				}
				JOINT rclavicle
				{
					OFFSET -0.082954 0.112472 -0.023707
					CHANNELS 3 Zrotation Yrotation Xrotation
					JOINT rshoulder
					{
						OFFSET -0.113228 0.046853 -0.008472
						CHANNELS 3 Zrotation Yrotation Xrotation
						JOINT relbow
						{
							OFFSET -0.260127 -0.014369 -0.031269
							CHANNELS 3 Zrotation Yrotation Xrotation
							JOINT rwrist
							{
								OFFSET -0.269108 0.006794 -0.006027
								CHANNELS 3 Zrotation Yrotation Xrotation
								End Site
								{
									OFFSET 0.000000 0.000000 0.000000
								}
							}
						}
					}
				}
			}
		}
	}
}
MOTION
Frames: 17
Frame Time: 0.033333
0.219044 0.215833 0.832090 103.265583 5.664253 98.877648 17.846438 7.583826 -53.987163 -10.463573 0.954325 67.176255 1.225125 16.975063 -26.874794 0.000000 -0.000000 0.000000 -10.669753 -14.451697 -39.036764 5.063554 -13.002196 60.787737 -1.070912 -10.498058 -32.007565 0.000000 -0.000000 0.000000 -0.947432 1.982792 23.513277 1.499212 -8.682607 -2.988908 3.414098 -4.968703 0.937504 -13.553067 15.424808 -5.620095 13.526089 1.774992 -34.501765 -10.608512 -36.462136 -2.974700 7.387752 -26.257301 -23.593325 11.653467 -14.863719 -18.192738 4.321542 -22.472479 2.843420 15.966313 29.179901 -0.223461 53.403305 -4.655699 1.278049 4.960108 39.231735 20.562049 -0.323021 18.425936 -13.672283 
0.218827 0.213645 0.846303 103.023413 5.434750 99.140325 17.528360 7.396695 -52.173170 -10.022274 0.542436 63.760507 1.116750 16.667477 -25.552540 0.000000 -0.000000 0.000000 -10.258962 -13.862810 -37.762276 5.226518 -12.800184 57.305181 -1.155861 -10.537683 -30.551941 0.000000 -0.000000 0.000000 -0.977478 1.971253 22.787515 1.331867 -8.439608 -2.705440 3.298764 -4.824525 0.780645 -12.561125 14.498830 -5.620941 13.473774 1.482241 -33.784439 -11.828705 -34.961889 -2.390879 4.678924 -25.434614 -21.503259 13.345316 -19.008488 -18.757298 3.986578 -22.464337 2.538681 16.095061 28.358517 -0.103380 53.690253 -4.174438 1.662576 4.308899 38.790476 19.778291 0.595616 18.119447 -13.508594 
0.218340 0.211264 0.862196 102.868510 5.207521 99.458300 17.162634 7.102999 -50.214427 -9.438303 0.040330 59.878241 0.949973 16.238534 -23.973199 0.000000 -0.000000 0.000000 -9.777436 -13.207176 -36.272463 5.377182 -12.530610 53.283714 -1.169360 -10.579564 -28.827576 0.000000 -0.000000 0.000000 -0.883390 1.847366 21.806095 1.165440 -8.225736 -2.387927 3.071120 -4.659301 0.726313 -11.345086 13.545458 -5.558808 13.323626 1.189689 -32.775307 -13.337395 -32.977062 -1.779555 1.290274 -24.028031 -18.444818 15.081230 -24.369321 -18.488280 3.520153 -23.028015 1.912950 16.252444 27.400708 -0.040073 54.035316 -3.657219 2.339965 3.545266 38.219552 18.735430 1.193470 17.907892 -13.704100 
0.218269 0.208686 0.879651 102.506203 4.881066 99.616384 16.742331 6.838293 -47.687309 -8.755395 -0.488770 55.450274 0.685440 15.587276 -22.182629 0.000000 -0.000000 0.000000 -9.306135 -12.326161 -34.389064 5.381927 -12.065090 48.727435 -1.143108 -10.565220 -26.817613 0.000000 -0.000000 0.000000 -0.924804 1.749770 20.700730 0.973603 -7.905527 -1.653158 2.829364 -4.419096 0.405664 -9.934558 12.712995 -5.286354 13.011661 0.934706 -31.759770 -14.895031 -30.387549 -1.028697 -2.999504 -22.029990 -14.491339 17.363779 -30.882510 -18.131619 3.220149 -23.700737 1.513652 16.526230 26.222871 0.278692 54.360746 -2.979266 3.361015 2.611546 37.673097 17.628221 1.472926 17.809594 -14.056134 
0.218304 0.205984 0.897781 102.104630 4.545759 99.793652 16.369860 6.499784 -44.969763 -8.102997 -1.221863 50.724985 0.224793 14.652607 -20.173026 0.000000 -0.000000 0.000000 -8.786520 -11.357397 -32.289624 5.264843 -11.557901 43.710255 -1.116847 -10.547921 -24.575111 0.000000 -0.000000 0.000000 -0.931208 1.591277 19.426036 0.791169 -7.560409 -0.821044 2.510400 -4.127608 0.022513 -8.444663 11.799074 -5.006730 12.653897 0.811067 -30.637330 -16.503907 -27.329040 -0.233011 -7.461984 -19.416486 -10.115776 19.649271 -37.949779 -17.851784 3.191222 -24.579360 0.387237 16.847759 24.762967 0.624532 54.550987 -2.246510 4.619224 1.871874 37.213254 16.758810 1.544057 17.809347 -14.540096 
0.218593 0.203453 0.915620 101.478937 4.105763 99.944278 15.974226 6.112760 -42.065845 -7.449523 -1.977483 45.852718 -0.387344 13.601947 -17.971831 0.000000 -0.000000 0.000000 -8.365683 -10.311768 -30.060542 5.059927 -10.919609 38.417395 -1.005485 -10.444420 -22.162396 0.000000 -0.000000 0.000000 -1.077304 1.495120 18.050045 0.598839 -7.143476 0.003950 2.164495 -3.733897 -0.409652 -6.988737 10.721754 -4.535894 12.405406 0.745258 -29.580345 -18.024032 -23.942565 0.479654 -11.875017 -16.420016 -5.577713 21.325670 -44.897502 -17.388871 3.577171 -25.432590 -1.433199 17.270642 23.008913 1.006181 54.512606 -1.533635 5.954775 1.472428 36.956662 16.147635 1.397893 17.802598 -14.968711 
0.219325 0.201373 0.932199 100.769313 3.657603 100.014817 15.563109 5.630218 -39.081373 -6.790282 -2.785802 41.097707 -1.088574 12.556920 -15.952612 0.000000 -0.000000 0.000000 -8.028457 -9.382492 -27.643423 4.846078 -10.194728 33.046955 -0.779627 -10.230388 -19.727029 0.000000 -0.000000 0.000000 -1.197289 1.430349 16.551704 0.447703 -6.705760 0.854335 1.805075 -3.242087 -0.879888 -5.733043 9.499785 -3.806889 12.214206 0.695482 -28.587804 -19.277903 -20.443096 1.210591 -16.272592 -13.261777 -1.127320 21.949821 -51.035828 -16.196411 4.412345 -26.067475 -3.193606 17.613744 21.093697 1.465327 54.299568 -0.827338 7.198235 1.454656 36.776203 15.807086 0.888515 17.870122 -15.342237 
0.220437 0.200031 0.946598 100.002264 3.274567 99.923967 15.113485 5.066321 -35.975740 -6.118088 -3.826509 36.562595 -1.693987 11.615067 -14.543319 0.000000 -0.000000 0.000000 -7.768670 -8.634545 -25.051769 4.669574 -9.449591 27.820118 -0.473933 -9.915590 -17.434492 0.000000 -0.000000 0.000000 -1.173351 1.418746 14.914644 0.348875 -6.241669 1.787520 1.424101 -2.725291 -1.304752 -4.692993 8.324074 -2.941355 11.896859 0.571749 -27.553617 -20.221601 -17.074588 1.790878 -20.535534 -10.165913 2.848447 21.047956 -55.717838 -13.709402 4.014629 -26.538492 -4.295880 17.778137 19.217327 1.820715 54.005775 -0.177244 8.277837 1.587608 36.491481 15.497886 0.952571 18.052354 -15.457374 
0.222021 0.199668 0.958350 99.054966 2.942465 99.579300 14.585257 4.519803 -32.594937 -5.379210 -5.104819 32.196436 -2.188351 10.901068 -13.975689 0.000000 -0.000000 0.000000 -7.581668 -8.009711 -22.298396 4.445027 -8.613898 22.847797 -0.013780 -9.507906 -15.409979 0.000000 -0.000000 0.000000 -1.075933 1.548451 13.387344 0.315004 -5.669167 2.491250 1.102422 -2.148876 -1.546504 -3.922655 7.195633 -1.903355 11.473769 0.310255 -26.483784 -20.790019 -14.055894 2.282006 -24.979118 -7.297944 6.325788 18.426591 -58.683423 -10.189805 3.557314 -26.644171 -5.037012 17.815108 17.461167 2.071514 53.626071 0.291539 9.019582 1.884496 36.132475 15.350498 0.992507 18.214879 -15.192828 
0.223576 0.200035 0.967432 98.158432 2.738495 99.108870 14.113464 4.194066 -29.274901 -4.481117 -6.016223 28.084181 -2.701632 10.573219 -14.022116 0.000000 -0.000000 0.000000 -7.359285 -7.470940 -19.550907 4.126495 -7.781707 18.207299 0.548967 -9.130503 -13.614592 0.000000 -0.000000 0.000000 -0.855430 1.713035 11.967610 0.442085 -5.132187 2.884541 0.841542 -1.661641 -1.588804 -3.353602 6.141522 -0.805664 10.972075 0.097238 -25.260391 -21.160272 -11.355126 2.824450 -29.385967 -4.482259 9.418112 14.580486 -60.237830 -6.210958 3.843027 -26.611605 -6.842881 17.824097 15.891123 2.284718 53.127157 0.808604 9.722208 2.202195 35.520304 15.243505 0.526480 18.333143 -14.949803 
0.225241 0.200942 0.974192 97.359203 2.550758 98.605061 13.576395 4.242175 -26.062556 -3.373788 -5.837774 23.935701 -2.938268 10.369471 -13.964261 0.000000 -0.000000 0.000000 -7.203953 -7.085676 -16.957768 3.704242 -7.109913 14.003846 1.173221 -8.719046 -12.007460 0.000000 -0.000000 0.000000 -0.657453 1.878823 10.515825 0.678937 -4.671745 3.336288 0.687749 -1.295684 -1.700821 -2.858294 5.312766 0.469176 10.300601 -0.154509 -24.173904 -21.250331 -8.856108 3.203885 -33.954315 -1.896375 11.919387 10.793029 -60.539623 -2.205144 3.115368 -26.384736 -7.695225 17.724909 14.404252 2.364719 52.825343 1.476396 10.471173 2.160435 34.548618 14.716676 0.662326 18.420851 -14.415320 
0.227337 0.202363 0.978931 96.741153 2.334045 98.075305 12.865898 4.564770 -22.820138 -2.208707 -5.274449 19.528301 -2.854306 10.075564 -13.604480 0.000000 -0.000000 0.000000 -7.249674 -6.841571 -14.485001 3.325953 -6.678203 10.321240 1.908188 -8.236357 -10.780212 0.000000 -0.000000 0.000000 -0.460662 2.000000 9.031288 0.956561 -4.298257 3.889361 0.623403 -0.990164 -1.994597 -2.485964 4.611498 2.095515 9.548805 -0.399436 -23.246244 -21.195685 -6.656105 3.547484 -38.650139 0.498565 13.878300 7.582218 -59.649566 1.607301 1.967804 -26.048885 -7.160445 17.560892 13.022782 2.409645 52.805107 2.058673 11.104479 1.685507 33.462800 13.824209 0.975774 18.570564 -13.604533 
0.229468 0.204370 0.981609 96.403640 2.152204 97.519973 12.175697 4.833438 -19.812382 -1.298125 -5.280858 15.432209 -2.617453 9.792650 -13.140434 0.000000 -0.000000 0.000000 -7.462217 -6.715898 -12.199012 3.143917 -6.496961 7.270025 2.670773 -7.803781 -10.221275 0.000000 -0.000000 0.000000 -0.154786 2.033026 7.665540 1.268628 -4.091213 4.331500 0.592426 -0.817590 -2.253979 -2.368232 3.808155 3.817529 8.915371 -0.354540 -22.360872 -21.130526 -4.807555 4.090645 -43.442467 2.662824 15.115700 5.880171 -58.228875 3.409571 1.173501 -25.493157 -7.472910 17.316557 11.838744 2.489619 53.014159 2.620827 11.530105 1.007378 32.428949 12.840207 1.242038 18.679893 -12.874137 
0.231251 0.206674 0.982814 96.298125 1.992109 96.844470 11.721887 4.942483 -17.410710 -0.788903 -5.543662 12.535467 -2.507830 9.358956 -12.479602 0.000000 -0.000000 0.000000 -7.779910 -6.695914 -10.075383 3.064111 -6.548388 4.821893 3.286385 -7.444863 -9.896863 0.000000 -0.000000 0.000000 0.199844 2.025433 6.716447 1.559138 -4.028911 4.521984 0.606558 -0.804922 -2.348878 -2.338168 3.088181 5.395861 8.388019 -0.256870 -21.645093 -21.004869 -3.333013 4.732660 -48.371248 4.387238 15.673812 5.622306 -56.358397 3.411105 0.780173 -25.061172 -8.113538 16.999414 10.869108 2.538217 53.498836 3.199554 11.719829 0.226839 31.444026 11.789997 1.606596 18.770038 -12.246159 
0.232806 0.208700 0.983635 96.438507 1.792271 95.981444 11.446800 4.784777 -15.460920 -0.601675 -5.563215 10.740833 -2.515452 8.877423 -11.865076 0.000000 -0.000000 0.000000 -8.153409 -6.790126 -7.886456 3.000791 -6.691367 2.713626 3.694447 -7.250213 -9.544408 0.000000 -0.000000 0.000000 0.415202 2.104614 6.138749 1.864668 -4.069698 4.679021 0.674086 -0.899089 -2.359210 -2.261181 2.477491 6.792385 7.913226 -0.392092 -21.094583 -20.576663 -2.280287 5.350319 -53.334720 5.365850 16.031084 5.781919 -53.845859 2.782240 0.069666 -24.561581 -9.161249 16.613692 10.057264 2.525972 54.403846 3.607002 11.877927 -0.880254 30.629980 10.439634 1.898282 18.742273 -12.141852 
0.234440 0.210527 0.984380 96.710510 1.596551 95.047069 11.177777 4.542852 -13.735281 -0.461968 -5.543711 9.489249 -2.495502 8.483637 -11.513209 0.000000 -0.000000 0.000000 -8.525622 -6.900587 -5.651822 2.968422 -6.792213 0.736117 3.988406 -7.237349 -9.078590 0.000000 -0.000000 0.000000 0.519983 2.301280 5.610295 2.214327 -4.154358 4.982120 0.753370 -0.966955 -2.430994 -2.279421 1.912703 8.235888 7.538642 -0.756636 -20.596956 -19.914569 -1.721869 5.974263 -57.615541 5.580803 16.649795 4.770526 -51.084760 3.276186 -1.993021 -23.979735 -10.557502 16.111874 9.389699 2.459629 55.593820 3.627081 12.127078 -2.046458 30.079970 9.056743 2.636253 18.623678 -12.710712 
0.236103 0.212247 0.984808 96.972714 1.513155 94.275669 11.000104 4.466420 -12.405557 -0.370156 -5.655157 8.650039 -2.494719 8.194060 -11.398871 0.000000 -0.000000 0.000000 -8.775041 -7.000348 -3.691004 2.978371 -6.850523 -1.061778 4.255709 -7.290352 -8.594557 0.000000 -0.000000 0.000000 0.730299 2.531001 4.886928 2.480535 -4.217191 5.344115 0.767313 -0.984581 -2.545698 -2.359977 1.415237 9.655654 7.264006 -1.149153 -19.902637 -19.692798 -1.543037 6.563423 -60.188659 5.597488 17.339958 3.172469 -48.905155 5.534898 -3.556548 -23.863619 -10.085237 15.710080 8.889458 2.435562 56.638347 3.348953 12.246713 -2.526808 29.679059 8.461549 3.098784 18.771653 -13.306436 
